<svg width="242" height="93" viewBox="0 0 242 93" fill="none" xmlns="http://www.w3.org/2000/svg">
<path d="M106.487 26.3636C106.487 28.9015 106.006 31.0606 105.044 32.8409C104.089 34.6212 102.786 35.9811 101.135 36.9205C99.491 37.8523 97.6425 38.3182 95.5895 38.3182C93.5213 38.3182 91.6652 37.8485 90.0213 36.9091C88.3774 35.9697 87.0781 34.6098 86.1236 32.8295C85.169 31.0492 84.6918 28.8939 84.6918 26.3636C84.6918 23.8258 85.169 21.6667 86.1236 19.8864C87.0781 18.1061 88.3774 16.75 90.0213 15.8182C91.6652 14.8788 93.5213 14.4091 95.5895 14.4091C97.6425 14.4091 99.491 14.8788 101.135 15.8182C102.786 16.75 104.089 18.1061 105.044 19.8864C106.006 21.6667 106.487 23.8258 106.487 26.3636ZM101.499 26.3636C101.499 24.7197 101.252 23.3333 100.76 22.2045C100.275 21.0758 99.5895 20.2197 98.7031 19.6364C97.8168 19.053 96.7789 18.7614 95.5895 18.7614C94.4001 18.7614 93.3622 19.053 92.4759 19.6364C91.5895 20.2197 90.9001 21.0758 90.4077 22.2045C89.9228 23.3333 89.6804 24.7197 89.6804 26.3636C89.6804 28.0076 89.9228 29.3939 90.4077 30.5227C90.9001 31.6515 91.5895 32.5076 92.4759 33.0909C93.3622 33.6742 94.4001 33.9659 95.5895 33.9659C96.7789 33.9659 97.8168 33.6742 98.7031 33.0909C99.5895 32.5076 100.275 31.6515 100.76 30.5227C101.252 29.3939 101.499 28.0076 101.499 26.3636ZM110.132 38V14.7273H115.053V24.9886H115.359L123.734 14.7273H129.632L120.996 25.1477L129.734 38H123.848L117.473 28.4318L115.053 31.3864V38H110.132ZM152.268 26.3636C152.268 28.9015 151.787 31.0606 150.825 32.8409C149.871 34.6212 148.568 35.9811 146.916 36.9205C145.272 37.8523 143.424 38.3182 141.371 38.3182C139.303 38.3182 137.446 37.8485 135.803 36.9091C134.159 35.9697 132.859 34.6098 131.905 32.8295C130.95 31.0492 130.473 28.8939 130.473 26.3636C130.473 23.8258 130.95 21.6667 131.905 19.8864C132.859 18.1061 134.159 16.75 135.803 15.8182C137.446 14.8788 139.303 14.4091 141.371 14.4091C143.424 14.4091 145.272 14.8788 146.916 15.8182C148.568 16.75 149.871 18.1061 150.825 19.8864C151.787 21.6667 152.268 23.8258 152.268 26.3636ZM147.28 26.3636C147.28 24.7197 147.034 23.3333 146.541 22.2045C146.056 21.0758 145.371 20.2197 144.484 19.6364C143.598 19.053 142.56 18.7614 141.371 18.7614C140.181 18.7614 139.143 19.053 138.257 19.6364C137.371 20.2197 136.681 21.0758 136.189 22.2045C135.704 23.3333 135.462 24.7197 135.462 26.3636C135.462 28.0076 135.704 29.3939 136.189 30.5227C136.681 31.6515 137.371 32.5076 138.257 33.0909C139.143 33.6742 140.181 33.9659 141.371 33.9659C142.56 33.9659 143.598 33.6742 144.484 33.0909C145.371 32.5076 146.056 31.6515 146.541 30.5227C147.034 29.3939 147.28 28.0076 147.28 26.3636ZM155.913 38V14.7273H165.095C166.853 14.7273 168.353 15.0417 169.595 15.6705C170.845 16.2917 171.796 17.1742 172.447 18.3182C173.107 19.4545 173.436 20.7917 173.436 22.3295C173.436 23.875 173.103 25.2045 172.436 26.3182C171.769 27.4242 170.804 28.2727 169.538 28.8636C168.281 29.4545 166.758 29.75 164.97 29.75H158.822V25.7955H164.175C165.114 25.7955 165.894 25.6667 166.516 25.4091C167.137 25.1515 167.599 24.7652 167.902 24.25C168.213 23.7348 168.368 23.0947 168.368 22.3295C168.368 21.5568 168.213 20.9053 167.902 20.375C167.599 19.8447 167.133 19.4432 166.504 19.1705C165.883 18.8902 165.099 18.75 164.152 18.75H160.834V38H155.913ZM168.482 27.4091L174.266 38H168.834L163.175 27.4091H168.482ZM198.3 26.3636C198.3 28.9015 197.819 31.0606 196.857 32.8409C195.902 34.6212 194.599 35.9811 192.947 36.9205C191.304 37.8523 189.455 38.3182 187.402 38.3182C185.334 38.3182 183.478 37.8485 181.834 36.9091C180.19 35.9697 178.891 34.6098 177.936 32.8295C176.982 31.0492 176.504 28.8939 176.504 26.3636C176.504 23.8258 176.982 21.6667 177.936 19.8864C178.891 18.1061 180.19 16.75 181.834 15.8182C183.478 14.8788 185.334 14.4091 187.402 14.4091C189.455 14.4091 191.304 14.8788 192.947 15.8182C194.599 16.75 195.902 18.1061 196.857 19.8864C197.819 21.6667 198.3 23.8258 198.3 26.3636ZM193.311 26.3636C193.311 24.7197 193.065 23.3333 192.572 22.2045C192.088 21.0758 191.402 20.2197 190.516 19.6364C189.629 19.053 188.591 18.7614 187.402 18.7614C186.213 18.7614 185.175 19.053 184.288 19.6364C183.402 20.2197 182.713 21.0758 182.22 22.2045C181.735 23.3333 181.493 24.7197 181.493 26.3636C181.493 28.0076 181.735 29.3939 182.22 30.5227C182.713 31.6515 183.402 32.5076 184.288 33.0909C185.175 33.6742 186.213 33.9659 187.402 33.9659C188.591 33.9659 189.629 33.6742 190.516 33.0909C191.402 32.5076 192.088 31.6515 192.572 30.5227C193.065 29.3939 193.311 28.0076 193.311 26.3636ZM103.027 57.7841V53.7273H122.141V57.7841H115.016V77H110.152V57.7841H103.027ZM130.209 53.7273V77H125.288V53.7273H130.209ZM134.257 53.7273H140.325L146.734 69.3636H147.007L153.416 53.7273H159.484V77H154.712V61.8523H154.518L148.496 76.8864H145.246L139.223 61.7955H139.03V77H134.257V53.7273ZM163.538 77V53.7273H179.22V57.7841H168.459V63.3295H178.413V67.3864H168.459V72.9432H179.266V77H163.538Z" fill="#A860E6"/>
<path d="M72.9291 1.37625C72.8112 0.981311 72.5536 0.632539 72.1956 0.383803C71.8376 0.135032 71.3995 0.000175686 70.9485 0H47.4766C46.3435 0 45.424 0.833243 45.424 1.86245V10.0475C43.7099 7.05189 40.2658 4.99714 36.2964 4.99714C32.6177 4.99714 29.3934 6.76405 27.5767 9.40654V1.86364C27.5767 1.36968 27.3605 0.895998 26.9755 0.546699C26.5906 0.197436 26.0685 0.00119461 25.5241 0.00119461H2.05218C1.6012 0.00130002 1.16281 0.136157 0.804737 0.384928C0.446672 0.633699 0.188863 0.982506 0.0711529 1.37752C-0.0465574 1.77253 -0.0176176 2.19172 0.153499 2.57032C0.324616 2.94892 0.628385 3.26582 1.01787 3.47211L23.4715 15.3567V37.8909C12.4339 42.4127 4.73128 52.4918 4.73128 64.1742C4.73128 80.0692 18.9823 93 36.499 93C54.0157 93 68.2667 80.0692 68.2667 64.1742C68.2667 52.4907 60.5641 42.4127 49.5264 37.8909V15.3554L71.9801 3.47092C72.37 3.26495 72.6742 2.94815 72.8458 2.56951C73.0174 2.19087 73.0466 1.77151 72.9291 1.37625ZM36.2964 8.7208C39.7032 8.7208 42.4756 11.2363 42.4756 14.3287C42.4756 17.4211 39.7032 19.9366 36.2964 19.9366C32.8882 19.9366 30.1158 17.4211 30.1158 14.3287C30.1158 11.2363 32.8882 8.7208 36.2964 8.7208ZM36.2964 23.6602C40.2658 23.6602 43.7099 21.6055 45.424 18.6099V67.2329C45.424 70.2733 41.3375 72.8408 36.5003 72.8408C31.6633 72.8408 27.5767 70.2733 27.5767 67.2329V19.2521C29.3934 21.8933 32.6177 23.6602 36.2964 23.6602ZM23.4715 3.72489V11.044L9.64291 3.72489H23.4715ZM64.1643 64.1742C64.1643 78.0144 51.7537 89.2762 36.5003 89.2762C21.2469 89.2762 8.83518 78.0144 8.83518 64.1742C8.83518 54.607 14.7705 46.2781 23.4701 42.0441V67.2329C23.4701 72.3787 29.3148 76.5642 36.4977 76.5642C43.6803 76.5642 49.5264 72.3787 49.5264 67.2329V42.0441C58.2287 46.2767 64.1643 54.607 64.1643 64.1742ZM49.528 11.044V3.72489H63.3564L49.528 11.044Z" fill="#A860E6"/>
</svg>
